<svg id="IOS" xmlns="http://www.w3.org/2000/svg" width="106.271" height="31.539" viewBox="0 0 106.271 31.539">
  <g id="Group_17821" data-name="Group 17821" transform="translate(0 0)">
    <g id="Group_17819" data-name="Group 17819">
      <path id="Path_8694" data-name="Path 8694" d="M97.808,0H8.468C8.142,0,7.82,0,7.5,0c-.272,0-.542.006-.816.01A13.182,13.182,0,0,0,4.9.151,6.453,6.453,0,0,0,3.211.645a5.741,5.741,0,0,0-1.437.929A5.007,5.007,0,0,0,.728,2.853a4.809,4.809,0,0,0-.555,1.5A9.128,9.128,0,0,0,.013,5.932C.005,6.174,0,6.416,0,6.658V24.883c0,.245.005.482.013.727a9.128,9.128,0,0,0,.159,1.578,4.8,4.8,0,0,0,.555,1.5,4.97,4.97,0,0,0,1.046,1.273,5.6,5.6,0,0,0,1.437.929,6.486,6.486,0,0,0,1.688.5,13.422,13.422,0,0,0,1.78.139c.274.005.544.008.816.008.325,0,.647,0,.972,0H97.808c.319,0,.643,0,.963,0,.271,0,.548,0,.819-.008a13.244,13.244,0,0,0,1.776-.139,6.588,6.588,0,0,0,1.695-.5,5.6,5.6,0,0,0,1.436-.929,5.123,5.123,0,0,0,1.049-1.273,4.808,4.808,0,0,0,.55-1.5,9.489,9.489,0,0,0,.165-1.578c0-.245,0-.482,0-.727.007-.286.007-.571.007-.862V7.519c0-.289,0-.575-.007-.861,0-.242,0-.484,0-.726a9.49,9.49,0,0,0-.165-1.579,4.819,4.819,0,0,0-.55-1.5A5.464,5.464,0,0,0,103.06.645a6.554,6.554,0,0,0-1.695-.494A13.011,13.011,0,0,0,99.59.011c-.271,0-.548-.008-.819-.01-.319,0-.644,0-.963,0Z" transform="translate(0 0)" fill="#fff"/>
      <path id="Path_8695" data-name="Path 8695" d="M7.6,31.034c-.271,0-.535,0-.8-.008A12.674,12.674,0,0,1,5.137,30.9a5.7,5.7,0,0,1-1.472-.432,4.824,4.824,0,0,1-1.241-.8,4.261,4.261,0,0,1-.907-1.1,4.166,4.166,0,0,1-.483-1.307,8.715,8.715,0,0,1-.148-1.478c-.006-.166-.013-.72-.013-.72V6.843S.881,6.3.886,6.138a8.685,8.685,0,0,1,.147-1.476,4.19,4.19,0,0,1,.483-1.311,4.3,4.3,0,0,1,.9-1.1,4.965,4.965,0,0,1,1.246-.806,5.646,5.646,0,0,1,1.469-.429A12.571,12.571,0,0,1,6.8.885l.8-.01H98.928l.811.01a12.37,12.37,0,0,1,1.651.128,5.758,5.758,0,0,1,1.485.432,4.728,4.728,0,0,1,2.146,1.908,4.192,4.192,0,0,1,.476,1.3,9.124,9.124,0,0,1,.154,1.488c0,.223,0,.463,0,.7.007.3.007.577.007.861v16.5c0,.286,0,.566-.007.848,0,.256,0,.491,0,.733a8.938,8.938,0,0,1-.152,1.461,4.174,4.174,0,0,1-.48,1.317,4.392,4.392,0,0,1-.9,1.093,4.827,4.827,0,0,1-1.244.806,5.682,5.682,0,0,1-1.482.433,12.529,12.529,0,0,1-1.661.129c-.26.005-.533.008-.8.008l-.963,0Z" transform="translate(-0.185 -0.185)" fill="#0277bd"/>
    </g>
    <g id="_Group_" data-name="&lt;Group&gt;" transform="translate(7.862 6.876)">
      <g id="_Group_2" data-name="&lt;Group&gt;">
        <g id="_Group_3" data-name="&lt;Group&gt;">
          <path id="_Path_" data-name="&lt;Path&gt;" d="M21.639,18.962A3.9,3.9,0,0,1,23.5,15.688a3.994,3.994,0,0,0-3.147-1.7c-1.324-.139-2.608.792-3.282.792s-1.727-.778-2.845-.755A4.191,4.191,0,0,0,10.7,16.175c-1.525,2.64-.387,6.52,1.073,8.654.731,1.045,1.585,2.212,2.7,2.171,1.094-.045,1.5-.7,2.822-.7s1.691.7,2.831.671c1.174-.019,1.913-1.05,2.618-2.1a8.643,8.643,0,0,0,1.2-2.438A3.771,3.771,0,0,1,21.639,18.962Z" transform="translate(-9.972 -9.831)" fill="#fff"/>
          <path id="_Path_2" data-name="&lt;Path&gt;" d="M21.351,11.473a3.842,3.842,0,0,0,.879-2.752A3.909,3.909,0,0,0,19.7,10.029a3.656,3.656,0,0,0-.9,2.65A3.232,3.232,0,0,0,21.351,11.473Z" transform="translate(-11.837 -8.72)" fill="#fff"/>
        </g>
      </g>
      <g id="Group_17820" data-name="Group 17820" transform="translate(19.283 7.215)">
        <path id="Path_8696" data-name="Path 8696" d="M40.637,25.223H36.9l-.9,2.646H34.427l3.535-9.791H39.6l3.535,9.791H41.532ZM37.291,24h2.958l-1.458-4.3H38.75Z" transform="translate(-34.427 -17.915)" fill="#fff"/>
        <path id="Path_8697" data-name="Path 8697" d="M53.356,24.992c0,2.218-1.187,3.644-2.979,3.644a2.42,2.42,0,0,1-2.246-1.249H48.1v3.536H46.631v-9.5H48.05v1.187h.027a2.532,2.532,0,0,1,2.273-1.262C52.161,21.347,53.356,22.779,53.356,24.992Zm-1.506,0c0-1.445-.747-2.4-1.887-2.4-1.12,0-1.873.97-1.873,2.4s.753,2.4,1.873,2.4C51.1,27.393,51.85,26.45,51.85,24.992Z" transform="translate(-37.009 -18.606)" fill="#fff"/>
        <path id="Path_8698" data-name="Path 8698" d="M63.321,24.992c0,2.218-1.187,3.644-2.979,3.644A2.42,2.42,0,0,1,58.1,27.386h-.034v3.536H56.6v-9.5h1.418v1.187h.027a2.532,2.532,0,0,1,2.273-1.262C62.126,21.347,63.321,22.779,63.321,24.992Zm-1.506,0c0-1.445-.747-2.4-1.886-2.4-1.12,0-1.873.97-1.873,2.4s.753,2.4,1.873,2.4C61.068,27.393,61.814,26.45,61.814,24.992Z" transform="translate(-39.117 -18.606)" fill="#fff"/>
        <path id="Path_8699" data-name="Path 8699" d="M71.308,25.1c.109.971,1.052,1.608,2.341,1.608,1.235,0,2.124-.638,2.124-1.513,0-.76-.536-1.215-1.8-1.527L72.7,23.36c-1.8-.434-2.633-1.275-2.633-2.64,0-1.689,1.472-2.85,3.563-2.85,2.069,0,3.487,1.16,3.535,2.85H75.685c-.089-.977-.9-1.567-2.077-1.567s-1.988.6-1.988,1.465c0,.692.516,1.1,1.778,1.411l1.079.265c2.009.475,2.844,1.282,2.844,2.714,0,1.832-1.459,2.979-3.78,2.979-2.171,0-3.637-1.12-3.732-2.891Z" transform="translate(-41.911 -17.871)" fill="#fff"/>
        <path id="Path_8700" data-name="Path 8700" d="M82.673,19.3v1.689H84.03v1.16H82.673v3.935c0,.611.272.9.869.9a4.576,4.576,0,0,0,.482-.034V28.1a4.024,4.024,0,0,1-.814.068c-1.445,0-2.009-.543-2.009-1.927V22.15H80.163v-1.16H81.2V19.3Z" transform="translate(-44.101 -18.173)" fill="#fff"/>
        <path id="Path_8701" data-name="Path 8701" d="M86.065,24.989c0-2.246,1.323-3.657,3.386-3.657s3.386,1.411,3.386,3.657-1.31,3.657-3.386,3.657S86.065,27.241,86.065,24.989Zm5.279,0c0-1.541-.706-2.45-1.893-2.45s-1.893.916-1.893,2.45.705,2.449,1.893,2.449,1.893-.9,1.893-2.449Z" transform="translate(-45.35 -18.603)" fill="#fff"/>
        <path id="Path_8702" data-name="Path 8702" d="M96.186,21.422h1.4v1.215h.034a1.7,1.7,0,0,1,1.717-1.29,2.261,2.261,0,0,1,.5.055v1.371a2.048,2.048,0,0,0-.658-.089,1.477,1.477,0,0,0-1.527,1.642v4.234H96.186Z" transform="translate(-47.491 -18.606)" fill="#fff"/>
        <path id="Path_8703" data-name="Path 8703" d="M107.657,26.461a2.865,2.865,0,0,1-3.074,2.185c-2.077,0-3.366-1.391-3.366-3.624s1.3-3.691,3.3-3.691c1.975,0,3.217,1.357,3.217,3.521v.5H102.7v.089a1.859,1.859,0,0,0,1.92,2.022,1.615,1.615,0,0,0,1.649-1ZM102.7,24.33h3.569a1.717,1.717,0,0,0-1.751-1.812A1.807,1.807,0,0,0,102.7,24.33Z" transform="translate(-48.555 -18.603)" fill="#fff"/>
      </g>
    </g>
  </g>
  <g id="_Group_4" data-name="&lt;Group&gt;" transform="translate(28.126 6.652)">
    <g id="Group_17822" data-name="Group 17822">
      <path id="Path_8704" data-name="Path 8704" d="M37.37,8.73a2.081,2.081,0,0,1,2.214,2.338,2.091,2.091,0,0,1-2.214,2.367h-1.7V8.73ZM36.4,12.769h.887a1.479,1.479,0,0,0,1.552-1.692,1.483,1.483,0,0,0-1.552-1.682H36.4Z" transform="translate(-35.671 -8.498)" fill="#fff"/>
      <path id="Path_8705" data-name="Path 8705" d="M41.679,11.95a1.682,1.682,0,1,1,3.349,0,1.682,1.682,0,1,1-3.349,0Zm2.628,0c0-.77-.346-1.22-.952-1.22s-.952.45-.952,1.22.343,1.222.952,1.222S44.307,12.723,44.307,11.95Z" transform="translate(-36.94 -8.79)" fill="#fff"/>
      <path id="Path_8706" data-name="Path 8706" d="M50.515,13.745h-.727l-.734-2.615H49l-.731,2.615h-.72l-.979-3.55h.711l.636,2.709h.052l.73-2.709h.672L50.1,12.9h.055l.633-2.709h.7Z" transform="translate(-37.976 -8.809)" fill="#fff"/>
      <path id="Path_8707" data-name="Path 8707" d="M53.854,10.175h.675v.564h.052a1.063,1.063,0,0,1,1.06-.633,1.155,1.155,0,0,1,1.229,1.321v2.3h-.7V11.6c0-.571-.248-.854-.766-.854a.814.814,0,0,0-.848.9v2.077h-.7Z" transform="translate(-39.517 -8.789)" fill="#fff"/>
      <path id="Path_8708" data-name="Path 8708" d="M59.094,8.437h.7v4.936h-.7Z" transform="translate(-40.625 -8.437)" fill="#fff"/>
      <path id="Path_8709" data-name="Path 8709" d="M61.216,11.95a1.682,1.682,0,1,1,3.349,0,1.682,1.682,0,1,1-3.349,0Zm2.628,0c0-.77-.346-1.22-.952-1.22s-.952.45-.952,1.22.343,1.222.952,1.222S63.844,12.723,63.844,11.95Z" transform="translate(-41.073 -8.79)" fill="#fff"/>
      <path id="Path_8710" data-name="Path 8710" d="M66.4,12.723c0-.639.476-1.008,1.321-1.06l.962-.055V11.3c0-.375-.248-.587-.727-.587-.391,0-.662.144-.74.395h-.678c.072-.61.645-1,1.451-1,.89,0,1.392.443,1.392,1.193v2.426h-.675v-.5h-.055a1.2,1.2,0,0,1-1.066.557A1.073,1.073,0,0,1,66.4,12.723Zm2.282-.3v-.3l-.867.055c-.489.033-.711.2-.711.512s.277.506.658.506a.837.837,0,0,0,.919-.776Z" transform="translate(-42.171 -8.79)" fill="#fff"/>
      <path id="Path_8711" data-name="Path 8711" d="M71.348,11.6c0-1.122.577-1.833,1.474-1.833a1.17,1.17,0,0,1,1.089.623h.052V8.437h.7v4.936h-.671v-.561h-.055a1.232,1.232,0,0,1-1.115.619C71.919,13.432,71.348,12.721,71.348,11.6Zm.724,0c0,.753.355,1.206.949,1.206s.956-.46.956-1.2-.369-1.206-.956-1.206-.949.456-.949,1.2Z" transform="translate(-43.217 -8.437)" fill="#fff"/>
      <path id="Path_8712" data-name="Path 8712" d="M79.228,11.95a1.682,1.682,0,1,1,3.349,0,1.682,1.682,0,1,1-3.349,0Zm2.628,0c0-.77-.346-1.22-.952-1.22s-.952.45-.952,1.22.343,1.222.952,1.222S81.856,12.723,81.856,11.95Z" transform="translate(-44.883 -8.79)" fill="#fff"/>
      <path id="Path_8713" data-name="Path 8713" d="M84.669,10.175h.675v.564H85.4a1.063,1.063,0,0,1,1.059-.633,1.155,1.155,0,0,1,1.229,1.321v2.3h-.7V11.6c0-.571-.248-.854-.766-.854a.814.814,0,0,0-.848.9v2.077h-.7Z" transform="translate(-46.035 -8.789)" fill="#fff"/>
      <path id="Path_8714" data-name="Path 8714" d="M93.176,9.074v.9h.769v.59h-.769V12.39c0,.372.153.535.5.535a2.341,2.341,0,0,0,.267-.016v.584a2.3,2.3,0,0,1-.381.036c-.779,0-1.09-.274-1.09-.959V10.564h-.564v-.59h.564v-.9Z" transform="translate(-47.567 -8.572)" fill="#fff"/>
      <path id="Path_8715" data-name="Path 8715" d="M95.7,8.437H96.4v1.957h.055a1.092,1.092,0,0,1,1.083-.636,1.17,1.17,0,0,1,1.223,1.324v2.292h-.7V11.254c0-.567-.264-.854-.759-.854a.829.829,0,0,0-.894.9v2.074h-.7Z" transform="translate(-48.369 -8.437)" fill="#fff"/>
      <path id="Path_8716" data-name="Path 8716" d="M103.9,12.768a1.441,1.441,0,0,1-1.538,1.027,1.613,1.613,0,0,1-1.64-1.833,1.638,1.638,0,0,1,1.637-1.855c.988,0,1.584.675,1.584,1.79v.244H101.44v.039a.938.938,0,0,0,.946,1.017.851.851,0,0,0,.845-.43Zm-2.465-1.144h1.793a.857.857,0,0,0-.874-.92.908.908,0,0,0-.919.92Z" transform="translate(-49.428 -8.79)" fill="#fff"/>
    </g>
  </g>
</svg>
