<svg id="G" xmlns="http://www.w3.org/2000/svg" width="106.272" height="31.539" viewBox="0 0 106.272 31.539">
  <g id="Google_Play-Badge-Logo.wine_1_" data-name="Google_Play-Badge-Logo.wine (1)" transform="translate(0 0)">
    <path id="Path_8775" data-name="Path 8775" d="M102.337,0H3.936A3.951,3.951,0,0,0,0,3.942V27.6a3.951,3.951,0,0,0,3.936,3.942h98.4a3.951,3.951,0,0,0,3.936-3.942V3.942A3.951,3.951,0,0,0,102.336,0m0,.631a3.313,3.313,0,0,1,3.306,3.312V27.6a3.313,3.313,0,0,1-3.306,3.312H3.936A3.313,3.313,0,0,1,.63,27.6V3.942A3.313,3.313,0,0,1,3.936.631h98.4" fill="#fff"/>
    <path id="Path_8776" data-name="Path 8776" d="M923.4,155.427a2.136,2.136,0,0,1-.586,1.579,2.288,2.288,0,0,1-1.735.7,2.471,2.471,0,1,1,0-4.943,2.434,2.434,0,0,1,.97.2,1.949,1.949,0,0,1,.739.529l-.415.416a1.593,1.593,0,0,0-1.293-.561A1.89,1.89,0,1,0,922.4,156.6a1.489,1.489,0,0,0,.4-.958h-1.715v-.568h2.289a2.034,2.034,0,0,1,.033.357" transform="translate(-886.072 -147.351)" fill="#fff"/>
    <path id="Path_8777" data-name="Path 8777" d="M921.259,153.281h-.079a2.059,2.059,0,0,1-.563,1.523h0a2.208,2.208,0,0,1-1.678.676,2.392,2.392,0,1,1,0-4.785,2.353,2.353,0,0,1,.938.192,1.869,1.869,0,0,1,.71.507l.06-.051-.056-.056-.415.416.056.055.061-.05a1.675,1.675,0,0,0-1.354-.59,1.873,1.873,0,0,0-1.344.547,2.06,2.06,0,0,0,0,2.842,1.957,1.957,0,0,0,2.719,0,1.572,1.572,0,0,0,.419-1.007l.007-.086h-1.722V153h2.21v-.079l-.078.014a1.923,1.923,0,0,1,.032.343h.158a2.1,2.1,0,0,0-.034-.371l-.012-.065h-2.434v.726h1.794v-.079l-.078-.007a1.413,1.413,0,0,1-.373.909,1.8,1.8,0,0,1-2.5,0,1.9,1.9,0,0,1,0-2.616,1.714,1.714,0,0,1,1.235-.5,1.516,1.516,0,0,1,1.233.533l.055.066.476-.477.051-.051-.047-.055a2.02,2.02,0,0,0-.768-.55,2.51,2.51,0,0,0-1-.2,2.55,2.55,0,1,0,0,5.1,2.369,2.369,0,0,0,1.792-.724l-.057-.054.056.056a2.218,2.218,0,0,0,.61-1.635h-.079m3.629-1.976h-2.152v1.5h1.94v.568h-1.94v1.5h2.152v.581H922.13v-4.731h2.758v.581" transform="translate(-883.931 -145.204)" fill="#fff"/>
    <path id="Path_8778" data-name="Path 8778" d="M1078.587,154.19v-.079h-2.229v1.658h1.94v.411h-1.94v1.658h2.151v.423h-2.6v-4.573h2.6v.5h.078v0h.079v-.66h-2.915v4.889h2.915v-.739h-2.151v-1.342h1.94v-.726h-1.94v-1.342h2.151v-.079h-.079m2.56,4.15h-.608v-4.15h-1.319v-.581h3.246v.581h-1.319v4.15" transform="translate(-1037.631 -148.089)" fill="#fff"/>
    <path id="Path_8779" data-name="Path 8779" d="M1173.426,158.34v-.079h-.529v-4.15h-1.32v-.423h3.089v.423h-1.32v4.229h.079v0h.079v-4.071h1.319v-.739h-3.4v.739h1.32v4.15h.765v-.079h-.079m3.668,0v-4.731h.606v4.731h-.606" transform="translate(-1129.91 -148.089)" fill="#fff"/>
    <path id="Path_8780" data-name="Path 8780" d="M1329.365,158.34h.078v-4.652h.449v4.573h-.528v.079h0v.079h.685V153.53h-.764v4.889h.079v-.079m3.3,0h-.606v-4.15h-1.319v-.581h3.246v.581h-1.32v4.15" transform="translate(-1282.181 -148.089)" fill="#fff"/>
    <path id="Path_8781" data-name="Path 8781" d="M1370.02,157.6v-.079h-.529v-4.15h-1.319v-.423h3.088v.423h-1.318V157.6h.078v0h.079V153.53h1.319v-.739h-3.4v.739h1.319v4.15h.765V157.6h-.079m4.448-1.007a1.814,1.814,0,0,0,2.566,0,2.017,2.017,0,0,0,0-2.716,1.814,1.814,0,0,0-2.566,0,2.022,2.022,0,0,0,0,2.716Zm3.015.4a2.449,2.449,0,0,1-3.463,0,2.558,2.558,0,0,1,0-3.508,2.441,2.441,0,0,1,3.46,0,2.551,2.551,0,0,1,0,3.505Z" transform="translate(-1319.538 -147.351)" fill="#fff"/>
    <path id="Path_8782" data-name="Path 8782" d="M1516.852,154.447l-.056.055a1.892,1.892,0,0,0,2.678,0,2.1,2.1,0,0,0,0-2.827,1.892,1.892,0,0,0-2.678,0,2.1,2.1,0,0,0,0,2.827l.056-.055.056-.055a1.943,1.943,0,0,1,0-2.605,1.736,1.736,0,0,1,2.454,0,1.94,1.94,0,0,1,0,2.605,1.736,1.736,0,0,1-2.454,0Zm3.015.4-.056-.055a2.371,2.371,0,0,1-3.35,0l0,0,0,0a2.48,2.48,0,0,1,0-3.4,2.363,2.363,0,0,1,3.347,0,2.474,2.474,0,0,1,0,3.4l.056.055.056.055a2.63,2.63,0,0,0,0-3.615,2.52,2.52,0,0,0-3.574,0h0a2.64,2.64,0,0,0,0,3.618l0,0,0,0a2.528,2.528,0,0,0,3.576,0Zm1.547.611v-4.731h.739l2.3,3.68h.027l-.027-.912v-2.769h.607v4.731h-.634l-2.4-3.859h-.027l.027.912v2.947h-.607" transform="translate(-1461.922 -145.204)" fill="#fff"/>
    <path id="Path_8783" data-name="Path 8783" d="M938.919,158.34H939v-4.652h.616l2.3,3.68h.151l-.028-.992v-2.689h.45v4.573h-.511l-2.4-3.859h-.151l.028.992v2.867h-.528v.079h0v.079h.685v-3.027l-.026-.913-.079,0v.079h.026v-.079l-.067.042,2.425,3.9h.756V153.53h-.765v2.848l.026.913.079,0v-.079h-.026v.079l.067-.042L939.7,153.53h-.861v4.889h.078v-.079m24.687,13.4h1.469v-9.857h-1.469Zm13.23-6.306-1.684,4.273h-.05l-1.748-4.273h-1.582l2.621,5.973-1.494,3.322h1.532l4.039-9.3Zm-8.33,5.187c-.482,0-1.153-.241-1.153-.837,0-.761.836-1.052,1.557-1.052a2.612,2.612,0,0,1,1.342.33A1.782,1.782,0,0,1,968.507,170.624Zm.177-5.4a2.756,2.756,0,0,0-2.62,1.509l1.3.545a1.392,1.392,0,0,1,1.342-.723,1.415,1.415,0,0,1,1.544,1.268v.1a3.243,3.243,0,0,0-1.532-.38c-1.405,0-2.836.773-2.836,2.219a2.275,2.275,0,0,0,2.444,2.169,2.072,2.072,0,0,0,1.874-.964h.051v.761h1.418v-3.779A2.7,2.7,0,0,0,968.684,165.222Zm-9.078,1.416h-2.089v-3.379h2.089a1.69,1.69,0,1,1,0,3.379Zm-.038-4.751h-3.519v9.857h1.468v-3.734h2.051a3.066,3.066,0,1,0,0-6.122Zm-19.193,8.739a2.04,2.04,0,0,1,0-4.065,2.049,2.049,0,0,1,0,4.065Zm1.687-4.637h-.051a2.32,2.32,0,0,0-1.763-.749,3.357,3.357,0,0,0,0,6.707,2.283,2.283,0,0,0,1.763-.762h.051v.483c0,1.283-.684,1.969-1.788,1.969a1.854,1.854,0,0,1-1.687-1.194l-1.281.533a3.191,3.191,0,0,0,2.968,1.982c1.725,0,3.183-1.016,3.183-3.493v-6.021h-1.4Zm2.41,5.754h1.471v-9.857h-1.471Zm3.64-3.252a1.838,1.838,0,0,1,1.75-1.956,1.3,1.3,0,0,1,1.243.712Zm4.566-1.118a3.112,3.112,0,0,0-2.866-2.134,3.185,3.185,0,0,0-3.158,3.353,3.279,3.279,0,0,0,3.323,3.353,3.329,3.329,0,0,0,2.79-1.486l-1.141-.762a1.912,1.912,0,0,1-1.649.927,1.7,1.7,0,0,1-1.623-1.016l4.477-1.855Zm-35.667-1.105v1.423h3.4a2.97,2.97,0,0,1-.774,1.791,3.475,3.475,0,0,1-2.625,1.042,3.786,3.786,0,0,1,0-7.571,3.618,3.618,0,0,1,2.561,1.016l1-1a4.95,4.95,0,0,0-3.563-1.436,5.209,5.209,0,1,0,0,10.416,4.606,4.606,0,0,0,4.857-4.789,4.633,4.633,0,0,0-.076-.889Zm8.721,4.357a2.038,2.038,0,1,1,1.889-2.032A1.939,1.939,0,0,1,925.732,170.626Zm0-5.386a3.353,3.353,0,1,0,3.361,3.353A3.3,3.3,0,0,0,925.732,165.24Zm7.331,5.386a2.038,2.038,0,1,1,1.89-2.032A1.939,1.939,0,0,1,933.063,170.626Zm0-5.386a3.353,3.353,0,1,0,3.361,3.353A3.3,3.3,0,0,0,933.063,165.24Z" transform="translate(-879.426 -148.089)" fill="#fff"/>
    <g id="google-play" transform="translate(7.885 6.308)">
      <g id="Group_17869" data-name="Group 17869" transform="translate(0 0)">
        <g id="Group_17868" data-name="Group 17868" transform="translate(0 0)">
          <path id="Path_8795" data-name="Path 8795" d="M33.006,7.674,19.674.314A2.469,2.469,0,0,0,17.2.351a2.3,2.3,0,0,0-1.155,1.987V17.055A2.3,2.3,0,0,0,17.2,19.044a2.468,2.468,0,0,0,2.472.034L33.007,11.72a2.29,2.29,0,0,0,0-4.046ZM32.42,10.66,19.088,18.017A1.271,1.271,0,0,1,17.819,18a1.082,1.082,0,0,1-.56-.944V2.338a1.084,1.084,0,0,1,.557-.944,1.276,1.276,0,0,1,1.271-.019L32.421,8.736a1.079,1.079,0,0,1,0,1.924Z" transform="translate(-16.047 0)" fill="#fff"/>
        </g>
      </g>
      <g id="Group_17871" data-name="Group 17871" transform="translate(0.563 0.487)">
        <g id="Group_17870" data-name="Group 17870" transform="translate(0)">
          <path id="Path_8796" data-name="Path 8796" d="M44.574,24.7,31.924,13.03a.606.606,0,0,0-.823.891l12.65,11.669a.606.606,0,1,0,.823-.889Z" transform="translate(-30.907 -12.87)" fill="#fff"/>
        </g>
      </g>
      <g id="Group_17873" data-name="Group 17873" transform="translate(0.526 5.651)">
        <g id="Group_17872" data-name="Group 17872" transform="translate(0)">
          <path id="Path_8797" data-name="Path 8797" d="M42.957,149.416a.606.606,0,0,0-.857,0l-12,11.995a.606.606,0,0,0,.857.857l12-11.995A.606.606,0,0,0,42.957,149.416Z" transform="translate(-29.927 -149.239)" fill="#fff"/>
        </g>
      </g>
    </g>
  </g>
</svg>
